<svg width="16" height="24" viewBox="0 0 16 24" fill="none" xmlns="http://www.w3.org/2000/svg">
<path d="M8.86542 12L15.2651 7.2C15.3799 7.11413 15.4731 7.00268 15.5373 6.87449C15.6015 6.7463 15.635 6.60491 15.635 6.46154C15.635 6.31817 15.6015 6.17678 15.5373 6.04859C15.4731 5.9204 15.3799 5.80894 15.2651 5.72308L7.8805 0.184616C7.74336 0.08176 7.58029 0.0191254 7.40955 0.00373031C7.23882 -0.0116647 7.06717 0.0207879 6.91384 0.0974521C6.76051 0.174116 6.63156 0.291963 6.54144 0.437787C6.45131 0.583611 6.40358 0.751651 6.40358 0.923077V10.1538L2.34204 7.10769C2.24506 7.03496 2.13471 6.98204 2.01728 6.95196C1.89986 6.92187 1.77765 6.91521 1.65765 6.93235C1.53765 6.9495 1.4222 6.99011 1.31789 7.05187C1.21358 7.11363 1.12246 7.19533 1.04973 7.29231C0.976999 7.38928 0.92408 7.49964 0.893995 7.61706C0.863911 7.73449 0.85725 7.85669 0.874394 7.9767C0.891537 8.0967 0.932148 8.21215 0.993909 8.31645C1.05567 8.42076 1.13737 8.51188 1.23435 8.58461L5.78788 12L1.23435 15.4154C1.13737 15.4881 1.05567 15.5792 0.993909 15.6835C0.932148 15.7879 0.891537 15.9033 0.874394 16.0233C0.839771 16.2657 0.902842 16.5118 1.04973 16.7077C1.19662 16.9035 1.4153 17.033 1.65765 17.0676C1.9 17.1023 2.14619 17.0392 2.34204 16.8923L6.40358 13.8462V23.0769C6.40358 23.2483 6.45131 23.4164 6.54144 23.5622C6.63156 23.708 6.76051 23.8259 6.91384 23.9025C7.06717 23.9792 7.23882 24.0117 7.40955 23.9963C7.58029 23.9809 7.74336 23.9182 7.8805 23.8154L15.2651 18.2769C15.3799 18.1911 15.4731 18.0796 15.5373 17.9514C15.6015 17.8232 15.635 17.6818 15.635 17.5385C15.635 17.3951 15.6015 17.2537 15.5373 17.1255C15.4731 16.9973 15.3799 16.8859 15.2651 16.8L8.86542 12ZM8.24973 2.76923L13.1725 6.46154L8.24973 10.1538V2.76923ZM8.24973 21.2308V13.8462L13.1725 17.5385L8.24973 21.2308Z" fill="#67686D"/>
</svg>
