<svg width="28" height="24" viewBox="0 0 28 24" fill="none" xmlns="http://www.w3.org/2000/svg">
<path d="M21.7246 16.5814H21.4582C21.164 16.5814 20.9255 16.3428 20.9255 16.0487C20.9255 15.7545 21.164 15.5159 21.4582 15.5159H21.7246C24.3683 15.5159 26.5191 13.3621 26.5191 10.7147C26.5191 8.57645 25.0866 6.67662 23.0356 6.09467C22.8458 6.04081 22.7014 5.88653 22.6601 5.69368C22.0862 3.01191 19.6764 1.06546 16.93 1.06546C15.4749 1.06546 14.0799 1.60219 13.002 2.57682C12.8377 2.72546 12.5986 2.75683 12.4015 2.65562C11.7214 2.30662 10.9867 2.12965 10.2176 2.12965C8.06265 2.12965 6.16106 3.57852 5.59322 5.65303C5.54144 5.84231 5.38977 5.98775 5.19852 6.03164C3.04426 6.52581 1.48075 8.49537 1.48075 10.7148C1.48075 13.3621 3.6316 15.5159 6.27533 15.5159H6.5417C6.83593 15.5159 7.07443 15.7545 7.07443 16.0487C7.07443 16.3428 6.83593 16.5814 6.5417 16.5814H6.27533C3.0441 16.5814 0.415283 13.9497 0.415283 10.7148C0.415283 9.38034 0.87551 8.07318 1.71115 7.03419C2.46902 6.0919 3.50593 5.40313 4.65636 5.07171C5.44576 2.6969 7.68904 1.06419 10.2176 1.06419C11.0227 1.06419 11.8254 1.23216 12.5602 1.55238C13.7926 0.548821 15.3306 0 16.93 0C18.5242 0 20.0807 0.55516 21.3125 1.5632C22.4451 2.49004 23.2595 3.75965 23.629 5.16457C25.9734 5.97059 27.5846 8.20871 27.5846 10.7147C27.5846 13.9496 24.9558 16.5814 21.7246 16.5814Z" fill="#67686D"/>
<path d="M20.1268 5.88714C19.9574 5.88714 19.7909 5.80654 19.6876 5.65647C18.8443 4.43188 17.6451 3.72953 16.3972 3.72953C16.1031 3.72953 15.8645 3.49102 15.8645 3.19679C15.8645 2.90257 16.1031 2.66406 16.3972 2.66406C18.001 2.66406 19.5201 3.53449 20.5651 5.05225C20.732 5.29459 20.6708 5.62626 20.4285 5.79317C20.3362 5.85667 20.231 5.88714 20.1268 5.88714Z" fill="#67686D"/>
<path d="M21.4581 24H6.54164C6.24742 24 6.00891 23.7615 6.00891 23.4673V12.2799C6.00891 11.9857 6.24742 11.7472 6.54164 11.7472H10.8035C10.9616 11.7472 11.1115 11.8174 11.2127 11.9389L12.3849 13.3454H21.4581C21.7523 13.3454 21.9909 13.5839 21.9909 13.8781V23.4673C21.9909 23.7615 21.7523 24 21.4581 24ZM7.07437 22.9346H20.9254V14.4109H12.1353C11.9772 14.4109 11.8273 14.3406 11.7261 14.2192L10.554 12.8127H7.07437V22.9346Z" fill="#67686D"/>
<path d="M21.4581 17.5935H6.54164C6.24742 17.5935 6.00891 17.355 6.00891 17.0608C6.00891 16.7666 6.24742 16.5281 6.54164 16.5281H21.4581C21.7523 16.5281 21.9909 16.7666 21.9909 17.0608C21.9909 17.355 21.7523 17.5935 21.4581 17.5935Z" fill="#67686D"/>
<path d="M19.5936 21.869H12.6681C12.3739 21.869 12.1354 21.6304 12.1354 21.3363V19.2053C12.1354 18.9112 12.3739 18.6726 12.6681 18.6726H19.5936C19.8878 18.6726 20.1264 18.9112 20.1264 19.2053V21.3363C20.1264 21.6304 19.8878 21.869 19.5936 21.869ZM13.2008 20.8035H19.0609V19.7381H13.2008V20.8035Z" fill="#67686D"/>
</svg>
