<svg width="23" height="24" viewBox="0 0 23 24" fill="none" xmlns="http://www.w3.org/2000/svg">
<path fill-rule="evenodd" clip-rule="evenodd" d="M11.1964 18.6316L5.82379 21.8811C5.39483 22.1272 4.86636 21.953 4.62988 21.4875V21.4875C4.56146 21.3433 4.52455 21.1834 4.52209 21.0206V6.62247C4.52209 3.87647 6.22176 2.77808 8.66762 2.77808H14.4133C16.7846 2.77808 18.5588 3.80325 18.5588 6.4394V21.0206C18.5588 21.2804 18.4654 21.5295 18.299 21.7132C18.1326 21.8969 17.907 22 17.6717 22C17.5216 21.9974 17.3741 21.9567 17.2406 21.8811L11.8348 18.6316C11.6356 18.5128 11.3956 18.5128 11.1964 18.6316Z" stroke="#67686D" stroke-width="2" stroke-linecap="round" stroke-linejoin="round"/>
</svg>
